{"title":"World War Z 2013 CAM XViD UNiQUE","uid":8634374,"size":1503027539,"categoryP":"video","categoryS":"movies","magnet":"?xt=urn:btih:545ee495d325adfb4dd99f5de3ff0d5d71035167&amp;dn=World+War+Z+2013+CAM+XViD+UNiQUE&amp;tr=udp%3A%2F%2Ftracker.openbittorrent.com%3A80&amp;tr=udp%3A%2F%2Fopen.demonii.com%3A1337&amp;tr=udp%3A%2F%2Ftracker.coppersurfer.tk%3A6969&amp;tr=udp%3A%2F%2Fexodus.desync.com%3A6969","seeders":3,"leechers":0,"uploader":"xxxlavalxxx","files":-1,"time":1372711958,"description":"\n\n &lt;a href=&quot;\nhttp://www.imdb.com/title/tt0816711/&quot; rel=&quot;nofollow&quot; target=&quot;_NEW&quot;&gt;\nhttp://www.imdb.com/title/tt0816711/&lt;/a&gt;\n\n\n\nUnited Nations employee Gerry Lane traverses the world in a race against time to stop the Zombie pandemic that is toppling armies and governments, and threatening to destroy humanity itself. \n\n\n\nDirector:\n Marc Forster \n\nWriters:\n Matthew Michael Carnahan (screenplay), Drew Goddard (screenplay)\n\nStars:\n Brad Pitt, Mireille Enos, Daniella Kertesz\n\nGenres:\n  Action |  Drama |  Horror |  Sci-Fi |  Thriller \n\n\nSource Used           THC            - Thanks\n\n\n\nFormat                                   : AVI\n Format/Info                              : Audio Video Interleave\n File size                                : 1.39 GiB\n Duration                                 : 1h 48mn\n Overall bit rate                         : 1 830 Kbps\n Writing application                      : VirtualDubMod 1.5.10.2 (build 2540/release)\n Writing library                          : VirtualDubMod build 2540/release\n\n Video\n ID                                       : 0\n Format                                   : MPEG-4 Visual\n Format profile                           : Advanced Simple@L5\n Format settings, BVOP                    : 2\n Format settings, QPel                    : No\n Format settings, GMC                     : No warppoints\n Format settings, Matrix                  : Default (H.263)\n Muxing mode                              : Packed bitstream\n Codec ID                                 : XVID\n Codec ID/Hint                            : XviD\n Duration                                 : 1h 48mn\n Bit rate                                 : 1 692 Kbps\n Width                                    : 720 pixels\n Height                                   : 288 pixels\n Display aspect ratio                     : 2.500\n Frame rate                               : 24.000 fps\n Color space                              : YUV\n Chroma subsampling                       : 4:2:0\n Bit depth                                : 8 bits\n Scan type                                : Progressive\n Compression mode                         : Lossy\n Bits/(Pixel*Frame)                       : 0.340\n Stream size                              : 1.28 GiB (92%)\n Writing library                          : XviD 64\n\n Audio\n ID                                       : 1\n Format                                   : MPEG Audio\n Format version                           : Version 1\n Format profile                           : Layer 3\n Mode                                     : Joint stereo\n Mode extension                           : MS Stereo\n Codec ID                                 : 55\n Codec ID/Hint                            : MP3\n Duration                                 : 1h 48mn\n Bit rate mode                            : Constant\n Bit rate                                 : 128 Kbps\n Channel(s)                               : 2 channels\n Sampling rate                            : 48.0 KHz\n Compression mode                         : Lossy\n Stream size                              : 99.5 MiB (7%)\n Alignment                                : Split accross interleaves\n Interleave, duration                     : 42 ms (1.00 video frame)\n Interleave, preload duration             : 500 ms\n\n\n\n\n//bayimg.com/fANlHAaEI\n//bayimg.com/FaNliAAei\n//bayimg.com/faNLjaAEI","torrent":{"xt":"urn:btih:545ee495d325adfb4dd99f5de3ff0d5d71035167","amp;dn":"World+War+Z+2013+CAM+XViD+UNiQUE","amp;tr":["udp%3A%2F%2Ftracker.openbittorrent.com%3A80","udp%3A%2F%2Fopen.demonii.com%3A1337","udp%3A%2F%2Ftracker.coppersurfer.tk%3A6969","udp%3A%2F%2Fexodus.desync.com%3A6969"],"infoHash":"545ee495d325adfb4dd99f5de3ff0d5d71035167","infoHashBuffer":{"type":"Buffer","data":[84,94,228,149,211,37,173,251,77,217,159,93,227,255,13,93,113,3,81,103]},"announce":[],"urlList":[]}}